<?xml version="1.0" encoding="utf-8"?>
<!-- Generator: Adobe Illustrator 16.0.0, SVG Export Plug-In . SVG Version: 6.00 Build 0)  -->
<!DOCTYPE svg PUBLIC "-//W3C//DTD SVG 1.1//EN" "http://www.w3.org/Graphics/SVG/1.1/DTD/svg11.dtd">
<svg version="1.1" id="Layer_1" xmlns="http://www.w3.org/2000/svg" xmlns:xlink="http://www.w3.org/1999/xlink" x="0px" y="0px"
	 width="126px" height="126px" viewBox="0 0 126 126" enable-background="new 0 0 126 126" xml:space="preserve">
<g>
	<path fill="#010101" d="M82.018,49.146c0.088,0.842,0.076,1.685-0.027,2.513c2.887,1.89,5.482,4.187,7.689,6.825
		c-3.293,1.502-6.801-3.977-9.877-1.374c-3.078,2.603,1.656,8.52-1.42,11.833c-0.473-0.473-1.893-1.42-2.604-2.13
		c-8.994,4.733,1.42,13.489,7.336,10.886c-0.813,8.288,8.076,7.099,14.188,8.833c-0.924,5.513-3.143,10.591-6.338,14.907
		c-3.348-1.156-6.088-1.507-9.27-2.442c-1.42-0.236-2.604,1.657-4.969,0.947c-2.84-0.947-1.895-6.626-5.207-6.626
		c-11.359,0.236,1.42,14.672,0.236,18.222c1.42-0.237,3.551,0.71,4.971,0.71c0.041,0.146,0.07,0.291,0.104,0.437
		c-4.242,1.846-8.916,2.875-13.83,2.875c-12.762,0-23.932-6.911-29.986-17.182c0.039,0.038,0.082,0.068,0.121,0.107
		c0.875-2.176,2.191-4.395,2.443-5.903c2.84,8.164,9.582,1.775,15.973,0c-1.775-4.26-3.549-9.229-3.904-14.199
		c2.256-0.282,7.555,1.378,8.17-2.109c0.615-3.488-6.148-10.231-14.205-14.93c0,0-1.42,0.71-1.064,0.71
		c-1.5,4.715-5.33,5.538-9.223,4.363c3.16-6.942,8.535-12.667,15.215-16.275c-0.313-0.627-0.563-1.3-0.738-2.022
		c-11.713,6.195-19.719,18.503-19.719,32.652c0,20.356,16.561,36.917,36.918,36.917c20.355,0,36.918-16.561,36.918-36.917
		C99.918,67.37,92.734,55.614,82.018,49.146z"/>
	<path fill="#010101" d="M47.18,33.528c1.523,2.111,4.412,3.433,7.541,3.408c1.84-0.015,3.625-0.494,5.094-1.358
		c2.207,1.254,5.145,1.619,7.771,0.923c1.477,0.833,3.27,1.28,5.1,1.267c2.318-0.018,4.508-0.76,6.107-2.054
		c1.379,0.668,2.949,1.013,4.582,1c4.75-0.037,8.592-3.11,8.563-6.85c-0.025-3.21-2.873-5.888-6.719-6.551
		c0.469-0.86,0.709-1.787,0.701-2.74c-0.029-3.618-3.631-6.563-8.277-6.846c-2.564-3.351-8.068-5.465-14.195-5.417
		c-6.27,0.049-11.811,2.331-14.25,5.842c-3.465,0.97-5.797,3.429-5.947,6.258c-3.455,0.953-5.797,3.531-5.773,6.459
		C37.508,30.879,41.957,34.066,47.18,33.528z"/>
	<path fill="#010101" d="M79.656,47.872c0-1.902-4.748-2.69-9.139-3.013c0.035-1.938,0.092-3.877,0.105-5.816
		c0.006-1.111-1.717-1.11-1.725,0c-0.012,1.907-0.053,3.81-0.078,5.711c-1.871-0.094-3.543-0.112-4.563-0.112
		c-1.129,0-3.055,0.022-5.172,0.146c-0.037-1.917-0.092-3.833-0.104-5.745c-0.008-1.11-1.73-1.111-1.723,0
		c0.014,1.958,0.061,3.912,0.092,5.867c-4.197,0.352-8.49,1.153-8.49,2.962c0,1.807,4.283,2.609,8.477,2.961
		c-0.084,4.082-0.066,11.072-3.744,13.523c-0.918,0.613-0.057,2.105,0.871,1.487c3.326-2.218,3.85-6.857,4.281-10.499
		c0.174-1.46,0.27-2.923,0.322-4.389c2.123,0.124,4.059,0.147,5.189,0.147c1.027,0,2.713-0.019,4.6-0.115
		c0.037,1.126,0.092,2.252,0.182,3.38c0.311,3.875,0.84,9.117,4.379,11.476c0.926,0.618,1.789-0.875,0.869-1.487
		c-3.615-2.411-3.531-9.188-3.719-12.979c-0.008-0.165-0.006-0.33-0.012-0.496C74.938,50.557,79.656,49.768,79.656,47.872z
		 M57.361,49.089c-3.34-0.301-5.631-0.787-6.506-1.217c0.877-0.43,3.17-0.917,6.514-1.218
		C57.375,47.465,57.371,48.277,57.361,49.089z M64.258,49.379c-1.875,0-3.594-0.059-5.145-0.157c0.012-0.899,0.008-1.8-0.002-2.7
		c1.551-0.099,3.271-0.158,5.146-0.158c1.637,0,3.154,0.046,4.547,0.123c-0.004,0.923,0,1.846,0.014,2.77
		C67.422,49.333,65.9,49.379,64.258,49.379z M70.51,49.143c-0.014-0.848-0.018-1.695-0.01-2.543
		c3.693,0.294,6.229,0.815,7.162,1.272C76.73,48.329,74.199,48.848,70.51,49.143z"/>
</g>
</svg>
